<?xml version="1.0" encoding="utf-8"?>
<!-- Generator: Adobe Illustrator 25.4.1, SVG Export Plug-In . SVG Version: 6.00 Build 0)  -->
<svg version="1.1" id="Layer_1" xmlns="http://www.w3.org/2000/svg" xmlns:xlink="http://www.w3.org/1999/xlink" x="0px" y="0px"
	 viewBox="0 0 200 200" style="enable-background:new 0 0 200 200;" xml:space="preserve">
<style type="text/css">
	.st0{fill-rule:evenodd;clip-rule:evenodd;}
	.st1{font-family:'Gotham-Book';}
	.st2{font-size:34.9587px;}
	.st3{font-size:18.9812px;}
</style>
<g>
	<path className="st0" d="M92.9,154.7c-20,6.8-42,2.2-57.6-12C19.7,128.5,13,106.9,17.9,86.4c6.3-25,27.7-43.2,53.4-45.3
		c25.5-2.1,49.6,12.2,60,35.6h0c-9.2-24.3-32.9-40-58.8-39c-26.1,1-48.6,18.5-55.8,43.6c-11,31.1,4.7,65.2,35.5,77
		c30.8,11.8,65.3-3.1,77.9-33.6c-1.7,3.3-3.8,6.2-6.3,8.9c4-7.3,6.5-15.3,7.5-23.6C127.5,130.7,112.8,147.9,92.9,154.7z"/>
	<text transform="matrix(1 0 0 1 35.9957 105.4345)"><tspan x="0" y="0" className="st1 st2">K</tspan><tspan x="25.1" y="0" className="st1 st2">ung Fu </tspan></text>
	<text transform="matrix(1 0 0 1 37.066 128.2841)"><tspan x="0" y="0" className="st1 st3">Z</tspan><tspan x="13.2" y="0" className="st1 st3">ONE</tspan></text>
</g>
</svg>
